<?xml version="1.0" encoding="UTF-8" standalone="no"?>
<!DOCTYPE svg PUBLIC "-//W3C//DTD SVG 1.1//EN" "http://www.w3.org/Graphics/SVG/1.1/DTD/svg11.dtd">
<svg version="1.1" xmlns="http://www.w3.org/2000/svg" xmlns:xlink="http://www.w3.org/1999/xlink" viewBox="0 0 124 124">
    <path d="m 95.835059,11.194378 c 0.841458,-0.841457 2.199103,-0.841457 3.04056,0 3.090061,3.090056 10.839951,10.839947 13.930001,13.930003 0.84146,0.841457 0.84146,2.199102 0,3.04056 -17.23219,17.232192 -67.408487,67.408489 -84.640679,84.640679 -0.841458,0.84146 -2.199103,0.84146 -3.04056,0 -3.090056,-3.09005 -10.839947,-10.83994 -13.930003,-13.930001 -0.841457,-0.841457 -0.841457,-2.199102 0,-3.04056 C 28.42657,78.602867 78.602867,28.42657 95.835059,11.194378 Z"/>
    <path d="m 112.80562,95.835059 c 0.84146,0.841458 0.84146,2.199103 0,3.04056 -3.09005,3.090061 -10.83994,10.839951 -13.930001,13.930001 -0.841457,0.84146 -2.199102,0.84146 -3.04056,0 C 78.602867,95.57343 28.42657,45.397133 11.194378,28.164941 c -0.841457,-0.841458 -0.841457,-2.199103 0,-3.04056 3.090056,-3.090056 10.839947,-10.839947 13.930003,-13.930003 0.841457,-0.841457 2.199102,-0.841457 3.04056,0 17.232192,17.232192 67.408489,67.408489 84.640679,84.640681 z"/>
</svg>
