<?xml version="1.0" encoding="UTF-8" standalone="no"?>
<!DOCTYPE svg PUBLIC "-//W3C//DTD SVG 1.1//EN" "http://www.w3.org/Graphics/SVG/1.1/DTD/svg11.dtd">
<svg version="1.1" xmlns="http://www.w3.org/2000/svg" xmlns:xlink="http://www.w3.org/1999/xlink" viewBox="0 0 124 124">
    <path d="M121.85 6C123.04 6 124 6.96 124 8.15C124 12.52 124 23.48 124 27.85C124 29.04 123.04 30 121.85 30C97.48 30 26.52 30 2.15 30C0.96 30 0 29.04 0 27.85C0 23.48 0 12.52 0 8.15C0 6.96 0.96 6 2.15 6C26.52 6 97.48 6 121.85 6Z"/>
    <path d="M121.85 94C123.04 94 124 94.96 124 96.15C124 100.52 124 111.47 124 115.84C124 117.03 123.04 118 121.85 118C97.48 118 26.52 118 2.15 118C0.96 118 0 117.03 0 115.84C0 111.47 0 100.52 0 96.15C0 94.96 0.96 94 2.15 94C26.52 94 97.48 94 121.85 94Z"/>
    <path d="M121.85 50C123.04 50 124 50.96 124 52.15C124 56.52 124 67.48 124 71.85C124 73.04 123.04 74 121.85 74C97.48 74 26.52 74 2.15 74C0.96 74 0 73.04 0 71.85C0 67.48 0 56.52 0 52.15C0 50.96 0.96 50 2.15 50C26.52 50 97.48 50 121.85 50Z"/>
</svg>
